<?xml version="1.0" standalone="no"?>
<!DOCTYPE svg PUBLIC "-//W3C//DTD SVG 20010904//EN"
 "http://www.w3.org/TR/2001/REC-SVG-20010904/DTD/svg10.dtd">
<svg version="1.0" xmlns="http://www.w3.org/2000/svg"
 width="512.000000pt" height="512.000000pt" viewBox="0 0 512.000000 512.000000"
 preserveAspectRatio="xMidYMid meet">
<metadata>
Created by potrace 1.16, written by Peter Selinger 2001-2019
</metadata>
<g transform="translate(0.000000,512.000000) scale(0.100000,-0.100000)"
fill="#000000" stroke="none">
<path d="M1235 4584 c-119 -18 -213 -39 -290 -66 -388 -132 -704 -431 -850
-803 -76 -193 -100 -341 -92 -574 5 -140 10 -184 35 -281 101 -387 347 -701
694 -885 164 -87 301 -130 360 -114 76 20 102 120 45 176 -13 13 -72 42 -131
63 -180 65 -313 148 -441 275 -320 316 -429 807 -274 1225 121 326 393 592
719 703 242 82 524 83 753 0 172 -61 313 -149 437 -273 139 -138 221 -267 290
-456 44 -122 70 -154 125 -154 70 0 115 45 115 113 0 45 -50 188 -102 292
-157 312 -429 557 -748 675 -158 59 -278 81 -455 85 -88 2 -173 1 -190 -1z"/>
<path d="M1186 4144 c-367 -79 -660 -370 -742 -739 -24 -108 -25 -304 -1 -403
61 -255 190 -448 397 -594 124 -87 186 -108 244 -84 66 28 83 119 32 174 -11
13 -43 35 -71 49 -164 84 -296 240 -362 428 -26 74 -28 91 -27 230 0 135 3
157 26 222 14 39 43 102 63 140 50 89 188 228 275 276 223 123 470 128 700 14
111 -55 255 -194 315 -305 44 -82 77 -112 125 -112 108 0 141 97 74 218 -130
237 -358 412 -623 478 -115 28 -311 32 -425 8z"/>
<path d="M3604 3815 c-109 -34 -201 -112 -248 -207 -16 -32 -30 -58 -31 -58
-2 0 -27 12 -55 26 -112 56 -261 55 -376 -2 -69 -36 -165 -135 -189 -197 l-17
-45 -56 29 c-193 99 -455 19 -548 -168 -16 -32 -30 -60 -32 -62 -1 -3 -95 88
-210 201 -249 247 -300 278 -458 278 -306 0 -499 -318 -363 -599 29 -60 96
-131 773 -808 407 -409 737 -743 732 -743 -21 0 -846 -132 -886 -142 -138 -34
-247 -123 -312 -255 -39 -79 -43 -92 -46 -183 -4 -89 -2 -103 23 -159 35 -77
102 -141 178 -170 l58 -21 1087 0 c1182 0 1164 -1 1346 57 232 73 358 165 687
499 249 254 332 373 398 570 51 154 64 248 58 429 -8 225 -51 378 -160 560
-64 108 -84 131 -546 640 -396 436 -424 464 -485 496 -91 48 -230 63 -322 34z
m217 -233 c32 -20 778 -836 874 -955 222 -277 267 -667 115 -986 -63 -130
-118 -200 -329 -414 -279 -283 -375 -356 -556 -420 -159 -56 -176 -57 -1298
-57 -1107 0 -1074 -2 -1111 51 -49 71 19 225 124 279 45 23 56 25 663 120 279
44 516 84 527 90 32 17 50 52 50 99 l0 45 -829 831 c-895 897 -858 855 -849
956 9 85 75 154 162 165 92 13 78 24 686 -582 l566 -564 46 0 c82 0 136 72
108 146 -6 16 -121 139 -255 274 -265 266 -264 265 -252 366 6 53 45 107 97
135 43 23 120 25 163 3 18 -9 138 -121 267 -249 129 -129 248 -239 264 -245
74 -27 146 26 146 107 0 46 -1 48 -134 182 -74 75 -142 151 -151 170 -24 48
-17 137 15 185 44 63 129 95 204 75 32 -9 68 -37 171 -138 153 -151 167 -161
218 -161 31 0 46 7 73 34 47 47 47 96 1 157 -50 65 -58 85 -59 138 0 83 52
157 130 182 39 12 119 3 153 -19z"/>
</g>
</svg>
